<?xml version="1.0" encoding="utf-8"?>
<!-- Generator: Adobe Illustrator 19.1.0, SVG Export Plug-In . SVG Version: 6.00 Build 0)  -->
<svg version="1.1" id="Calque_1" xmlns="http://www.w3.org/2000/svg" xmlns:xlink="http://www.w3.org/1999/xlink" x="0px" y="0px"
	 viewBox="0 0 524.1 498.7" style="enable-background:new 0 0 524.1 498.7;" xml:space="preserve">
<style type="text/css">
	.st0{fill:none;}
	.st1{fill:#666666;}
	.st2{fill:#333333;}
</style>
<g>
	<path class="st0" d="M97.6,222.1c0.1,0,0.2,0,0.3-0.1h-2.1c0.1,0,0.2,0.1,0.3,0.1C96.6,222.2,97.1,222.2,97.6,222.1z"/>
	<path class="st1" d="M70.5,248.3c-2.2,4.1-4.2,8.2-6.1,12.5c-6,13.3-10.5,27.2-13,41.6c-1.4,8-2.2,16-2.2,24.2
		c0,5.5,0.2,11,0.8,16.5c0.2,1.9,0.6,3.8,0.9,5.7c0,0.2,0.2,0.3,0.5,0.2c0.2-1.2,0.4-2.4,0.5-3.7c0.6-5.2,1.5-10.3,2.6-15.4
		c3.3-15.6,8.6-30.4,15.4-44.7c0.2-0.4,0.4-0.9,0.7-1.3c0.1-0.2,0.2-0.3,0.4-0.4c0.1-0.1,0.2-0.1,0.4-0.1v-36.8
		C71.2,247,70.9,247.6,70.5,248.3z"/>
	<path d="M77.7,396.8C77.7,396.8,77.7,396.8,77.7,396.8C77.8,396.8,77.8,396.7,77.7,396.8L77.7,396.8z"/>
	<path d="M97.6,222.1c-0.5,0.1-1,0.1-1.4,0c-0.1,0-0.2,0-0.3-0.1h-0.4h0.4c-0.4-0.2-0.8-0.6-0.8-1.1c-0.1-1-0.1-1.9-0.1-2.9
		c0-2.2,0-4.4-0.1-6.7c0-1.3-0.2-2.5-0.2-3.8c0-20.2,0-40.3,0-60.5c0-0.9,0-1.7,0-2.6c0-0.4,0.1-0.8,0.1-1.1c0.1-0.5,0.5-0.9,1-0.9
		c1.2-0.1,2.3-0.2,3.5-0.2c11.8,0,23.5,0,35.3,0c1.1,0,2.1,0,3.2-0.1c0.5,0,0.9-0.5,0.9-1c0-3.1,0-6.2,0-9.3c0-0.1,0-0.2,0-0.3
		c0-0.3-0.5-0.7-0.8-0.8c-0.8,0-1.5-0.1-2.3-0.1c-20.1,0-40.1,0-60.2,0c-0.6,0-1.2,0-1.7,0c-1.3,0-1.6,0.4-1.7,1.8
		c0,1.3,0,2.5,0,3.8c0,28,0,55.9,0,83.9c0,7.5,0,15,0,22.6c0,1.2-0.1,2.3-0.5,3.3v36.8c0.1,0,0.1,0,0.2,0c0.1,0,0.2,0.1,0.2,0.2
		c0.1,1.2,0.1,2.3,0.1,3.5c0,17.5,0,34.9,0,52.4c0,0.9,0,1.7,0,2.6c0,1.4,0.4,1.8,1.7,1.8c0.8,0,1.5,0,2.3,0c19.9,0,39.7,0,59.6,0
		c0.8,0,1.5,0,2.3,0c0.3,0,0.6-0.1,0.9-0.1c0.3-0.1,0.7-0.5,0.7-0.8c0-0.3,0.1-0.6,0.1-0.9c0-2.8,0-5.6,0-8.4c0-0.3-0.1-0.6-0.1-0.9
		c0-0.3-0.5-0.7-0.8-0.8c-0.7-0.1-1.3-0.1-2-0.1c-2.7,0-5.4,0-8.1,0c-10,0-20.1,0-30.1,0c-0.9,0-1.7,0-2.6-0.1c-0.4,0-0.9-0.5-1-0.9
		c-0.1-0.9-0.1-1.7-0.1-2.6c0-26.7,0-53.4,0-80.1c0-1,0-1.9,0.1-2.9c0-1.4,0.1-2.9,0.1-4.3c0-1.2,0-2.3,0-3.5c0-0.5,0.1-1,0.2-1.4
		c0.1-0.4,0.6-0.8,1-0.9c0.4,0,0.8-0.1,1.2-0.1c3.8,0,7.5-0.1,11.3-0.1c7.2,0,14.5,0,21.7,0c0.9,0,1.7,0,2.6,0c0.3,0,0.6,0,0.8-0.2
		c0.2-0.1,0.5-0.4,0.5-0.6c0.1-0.5,0.2-0.9,0.2-1.4c0-2.3,0-4.6,0-6.9c0-3,0-3-3.1-3c-4.5,0-9.1,0-13.6,0c-0.9,0-1.7,0-2.6-0.1
		c-0.2,0-0.3-0.1-0.4-0.3H97.9C97.8,222.1,97.7,222.1,97.6,222.1z"/>
	<path class="st2" d="M508.8,211.1c0-1.4,0.1-3.6,0-5.8c-0.1-4.3-0.6-8.7-1.2-13c-0.3-2-0.7-4-1.1-6c0-0.2-0.2-0.3-0.4-0.2
		c-0.1,0-0.1,0.1-0.2,0.2c-0.4,0.8-0.3,1.7-0.4,2.6c-0.4,5-1,10-1.8,14.9c-1.6,9.7-3.9,19.3-6.9,28.6c-3.2,10-7.3,19.7-12,29.1
		c-6.3,12.6-13.9,24.5-22.4,35.7c-7.8,10.3-16.5,19.9-25.7,28.9c-4.8,4.7-9.8,9.3-15,13.7c-7.7,6.6-15.8,12.7-24,18.7
		c-3.2,2.3-6.5,4.5-9.8,6.7c-18.6,12.2-38.2,22.5-58.6,31.3c-15.6,6.7-31.6,12.3-47.9,17c-14.3,4.1-28.8,7.4-43.4,9.8
		c-2.4,0.4-4.8,0.8-7.1,1.3c-2.6,0.5-3,1-3.6,3.5c-0.6,2.3-1,4.7-1.1,7.1c-0.1,1.2-0.1,2.3-0.4,3.4c-0.7,2.4-0.7,5-1.1,7.4
		c0,0.3,0,0.6,0,0.9c0,1.3,0.8,2.2,2.1,2.3c1.6,0,3.3,0,4.9-0.1c7.6-0.6,15.2-1.6,22.7-2.8c7.7-1.3,15.4-2.8,23-4.7
		c10.1-2.5,20.1-5.4,30-8.8c14-4.8,27.6-10.4,40.9-16.9c15.2-7.4,29.8-15.8,43.9-25.2c16-10.7,31.1-22.5,44.9-35.9
		c4.1-4,8.1-7.9,12.1-12.1c11.1-11.7,21.2-24.3,30-37.8c4.5-6.9,8.6-14,12.2-21.3c3.6-7.2,6.7-14.5,9.3-22.1c3.5-10,6-20.2,7.4-30.6
		C508.5,224.7,509.1,218.3,508.8,211.1z"/>
	<path d="M74.5,369c0-0.3-0.5-0.8-0.8-0.8c-1-0.1-1.9-0.1-2.9-0.1c-10.2,0-20.4,0-30.7,0c-0.9,0-1.7,0-2.6,0c-0.4,0-0.8-0.1-1.1-0.2
		c-0.3-0.1-0.7-0.5-0.8-0.8c0-1.2-0.1-2.3-0.1-3.5c0-86.8,0-173.6,0-260.4c0-1.4,0-2.7,0-4.1c0-3.3,0.1-3.3-3.4-3.3
		c-5.3,0-10.6,0-15.9,0c-0.5,0-1,0-1.4,0c-0.3,0-0.6,0.1-0.9,0.1c-0.4,0.1-0.9,0.5-1,1c-0.1,1.3-0.1,2.5-0.1,3.8
		c0,45.8,0,91.6,0,137.4c0,45.4,0,90.8,0,136.3c0,1.1,0,2.1,0,3.2c0,0.5,0.1,1,0.1,1.4c0.1,0.5,0.5,0.9,0.9,1c0.9,0,1.7,0.1,2.6,0.1
		c18.1,0,36.3,0,54.4,0c0.7,0,1.4,0,2,0c0.3,0,0.6,0,0.8-0.1c0.2-0.1,0.5-0.3,0.6-0.5c0.1-0.2,0.2-0.6,0.2-0.8c0-2.9,0-5.8,0-8.7
		C74.6,369.6,74.5,369.3,74.5,369z"/>
	<path class="st1" d="M434.9,293c-5.6,5.4-11.5,10.6-17.5,15.6c-11.1,9.2-22.7,17.6-34.7,25.5c-14,9.1-28.5,17.3-43.4,24.9
		c-9.8,5-19.8,9.5-30,13.7c-7.2,3-14.5,5.8-21.9,8.4c-13,4.7-26.1,8.8-39.5,12.3c-2.8,0.7-5.6,1.5-8.4,2.2c-0.8,0.2-1.7,0.5-2.5,0.9
		c-0.6,0.2-0.9,0.7-1.1,1.3c-0.1,0.3-0.2,0.5-0.2,0.8c-0.5,2.4-1,4.7-1.8,7c-0.4,1-0.5,2.1-0.4,3.1c0,0.3,0.1,0.6,0.1,0.9
		c0.1,0.3,0.5,0.7,0.8,0.7c0.4,0,0.8,0.1,1.1,0c1.1-0.2,2.3-0.4,3.4-0.6c7.7-1.4,15.3-3.2,22.8-5.2c13.8-3.6,27.4-8,40.7-13.2
		c14.1-5.4,27.9-11.7,41.4-18.6c10.3-5.3,20.3-11.1,30.1-17.3c15.4-9.8,30.2-20.4,44.1-32.2c9.3-7.8,18.2-16.1,26.6-24.9
		c7.2-7.4,13.9-15.2,20.2-23.4c9.3-12.1,17.5-24.9,24-38.8c4.8-10.2,8.6-20.8,10.9-32c1-4.8,1.6-9.7,1.9-14.6
		c0.2-3.7,0.3-7.3,0.1-11c0-0.3-0.1-0.5-0.2-0.8c-0.6,0.4-0.6,1-0.7,1.5c-0.5,2.4-1,4.9-1.6,7.4c-3.7,15.6-9.5,30.4-16.9,44.5
		c-6.9,13.1-15.2,25.3-24.5,36.8C450.8,276.8,443.1,285.1,434.9,293z"/>
	<path class="st1" d="M381,89.6c-1.8-0.3-3.4,0.1-4.6,1.5c-0.7,0.8-1.5,1.6-2.2,2.5c-2.5,3.2-4.9,6.4-7.3,9.6
		c-0.4,0.5-0.6,1-0.9,1.6c-0.2,0.4,0.1,1.1,0.5,1.2c0.2,0.1,0.4,0.1,0.6,0.2c1.8,0.2,3.6,0.4,5.4,0.5c3.8,0.2,7.6,0.3,11.4,0.6
		c7.4,0.6,14.8,1.5,22.1,2.8c11.8,2,23.3,5,34.5,9.2c9.8,3.7,19.2,8.1,28.1,13.6c1.4,0.9,2.9,1.8,4.3,2.7c0.6,0.4,1.3,0.5,2,0.4
		c-1.4-0.6-2.4-1.8-3.6-2.7c-13.9-11.5-29.1-21-45.4-28.6c-7.5-3.5-15.3-6.6-23.2-9.2c-6.5-2.1-13-4-19.7-5.4
		C382.4,89.8,381.7,89.7,381,89.6z"/>
	<polygon points="486.4,134.1 486.4,134.1 486.4,134.1 486.4,134.1 486.4,134.1 	"/>
	<path d="M486.4,135.5C486.4,135.5,486.4,135.5,486.4,135.5C486.4,135.5,486.4,135.4,486.4,135.5L486.4,135.5z"/>
	<path d="M486.4,134.2c0,0,0-0.1,0-0.1c0,0,0,0,0,0C486.4,134.1,486.4,134.2,486.4,134.2z"/>
	<path d="M486.4,135.4c0-0.4,0-0.8,0-1.2C486.4,134.6,486.4,135,486.4,135.4L486.4,135.4z"/>
	<polygon points="486.4,134.1 486.4,134.1 486.4,134.1 	"/>
	<path d="M486.4,135.5c0,0,0.1-0.2,0.1-0.2L486.4,135.5C486.4,135.4,486.4,135.4,486.4,135.5L486.4,135.5z"/>
	<path d="M486.4,135.5C486.4,135.4,486.4,135.4,486.4,135.5L486.4,135.5C486.4,135.4,486.4,135.5,486.4,135.5z"/>
	<path d="M488.3,136.3c0.2-0.1,0.1-0.1-0.1-0.1c0,0-0.1,0-0.1,0l0.1,0l-0.1,0C488.2,136.3,488.3,136.4,488.3,136.3z"/>
	<path d="M77.1,395.8l-0.1-0.1C77,395.7,77.1,395.8,77.1,395.8C77.1,395.9,77.1,395.9,77.1,395.8C77.1,395.8,77.1,395.8,77.1,395.8z
		"/>
	<path d="M77.1,395.8C77.1,395.9,77.1,395.9,77.1,395.8c0,0,0.1,0.1,0.1,0.1C77.2,395.9,77.1,395.9,77.1,395.8
		C77.1,395.8,77.1,395.8,77.1,395.8z"/>
	<path d="M77.6,396.6c-0.1-0.2-0.3-0.4-0.4-0.6C77.3,396.2,77.4,396.4,77.6,396.6z"/>
	<path d="M77.7,396.8C77.7,396.8,77.8,396.7,77.7,396.8c0-0.1-0.1-0.1-0.1-0.2C77.6,396.6,77.7,396.7,77.7,396.8z"/>
	<path d="M77.1,395.9C77.1,395.9,77.1,395.9,77.1,395.9C77.1,395.9,77.1,395.9,77.1,395.9z"/>
	<path d="M168.4,462l0.3-1.6c0-0.4,0.1-0.8,0.1-1.2C168.5,461,168.4,462,168.4,462z"/>
	<path d="M179.8,389.8l0.4-2.2c-1,4.2-2.1,9.7-3.2,15.8c0.2-1,0.4-1.9,0.6-2.9C178.3,396.9,179,393.3,179.8,389.8z"/>
	<path d="M177.6,400.4c-0.2,1-0.4,1.9-0.6,2.9c-3.6,20.3-7.1,47.2-8.2,55.9c0,0.4-0.1,0.8-0.1,1.2l11.1-70.6
		C179,393.3,178.3,396.9,177.6,400.4z"/>
</g>
<g>
	<path class="st1" d="M318.8,84.1c-6.8,1-13.6,1.9-20.3,3.2c-11.7,2.3-23.2,5.2-34.5,8.7c-11,3.4-21.7,7.4-32.3,12
		c-7.2,3.1-14.3,6.4-21.3,10c-6.5,3.3-12.9,6.8-19.1,10.4c-6.7,3.9-13.2,8.1-19.7,12.4c-4.5,3-8.8,6.2-13.1,9.5
		c-4.1,3.1-8.2,6.1-12.1,9.3c-11.9,9.6-23.2,20-33.7,31.2c-3.5,3.7-6.9,7.5-10.2,11.4c-0.8,1-1.5,2-2.3,3.1
		c-0.5,0.7-5.8,6.5-5.8,7.4c0,0.5,0.9,9.2,0,9.5l20.9,0.2c-0.1-0.2-0.2-0.4-0.1-0.6c0.3-0.5,0.7-1,1.1-1.4
		c7.7-8.1,15.9-15.8,24.4-23c12.6-10.7,25.8-20.5,39.7-29.5c8.5-5.5,17.2-10.6,26.1-15.5c4.6-2.5,9.1-5,13.8-7.3
		c7.4-3.7,14.9-7.1,22.5-10.3c17.4-7.4,35.2-13.5,53.4-18.5c1-0.3,2.1-0.6,3.1-0.8c0.3-0.1,0.6-0.1,0.9,0l22.5-31.8
		C321.3,83.9,320,84,318.8,84.1z"/>
	<path d="M409.8,14.1c0-0.7,0-1.4-0.1-2c0-0.8-0.5-1.3-1.2-1.3c-1.2,0-2.3-0.1-3.5-0.1c-99.9,0-199.8,0-299.8,0c-1.4,0-2.9,0-4.3,0
		c-0.7,0-1.4,0-2,0c-1,0-1.3,0.4-1.4,1.5c0,1.1-0.1,2.1-0.1,3.2c0,16,0,32,0,48c0,0.9,0,1.7,0,2.6c0,0.4,0.1,0.8,0.1,1.1
		c0,0.3,0.5,0.7,0.8,0.7c1.3,0,2.7,0.1,4,0.1c74.9,0,149.9,0,224.8,0c1.3,0,2.5,0,3.8,0c0.3,0,0.6,0.1,0.8,0.1
		c0.2,0,0.4,0.5,0.3,0.7c-0.2,0.3-0.4,0.7-0.7,0.9c-4,4.7-12.5,15-12.9,15.2c-8.7,10.9-21.9,28.7-38.3,54.2
		c16.5-25.4,29.7-43.2,38.3-54.2c-0.6,0.4-24.9,33.8-25.3,34.5c-6.9,10-13.5,20.2-19.8,30.6c-5,8.3-10,16.7-14.8,25.2
		c-8.8,15.6-17.2,31.5-24.9,47.7c-8.9,18.5-17,37.4-24.2,56.6c-4.6,12.1-8.8,24.3-12.7,36.6c-4.6,14.5-8.7,29.2-12.4,44
		c-2.5,9.9-4.8,19.7-7,29.7l-11.1,70.6c-0.2,2.6-0.4,5.3-0.6,7.9c-0.3,4-0.5,8.1-0.7,12.1c-0.1,1-0.1,1.9-0.1,2.9
		c0,0.9,0,1.7,0.1,2.6c0,0.5,0.5,0.9,0.9,1c1.1,0.1,2.1,0.1,3.2,0.1c17.5,0,34.9,0,52.4,0c0.9,0,1.7,0,2.6,0c0.4,0,0.8,0,1.1-0.1
		c0.4-0.1,0.7-0.3,0.8-0.7c0.1-0.7,0.2-1.3,0.3-2c0.2-3.2,0.4-6.3,0.7-9.5c0.2-2.5,0.4-5,0.7-7.5c0.3-3.5,0.6-6.9,1.1-10.4
		c0.4-2.7,0.4-5.4,1.1-8c0.4-1.3,0.4-2.7,0.6-4c0.3-2.3,0.6-4.6,0.9-6.9c0.5-3.5,1.1-7,1.5-10.6c0.4-3.7,0.9-7.5,1.6-11.2
		c0.3-1.9,0.8-3.8,1.2-5.7c1-5,1.9-10,2.8-15.1c0.6-3,1.3-6,1.9-9c2.4-10.6,5.2-21.2,8.2-31.6c3.3-11.4,6.8-22.7,10.6-33.9
		c4.3-12.8,9-25.5,13.9-38c7.6-19.2,16-38,25.1-56.6c5.4-11,11-21.9,16.9-32.6c8.9-16.3,18.2-32.2,28-48
		c5.3-8.6,10.9-17.1,16.6-25.4c3.9-5.7,7.9-11.4,12.1-16.9c5-6.6,9.9-13.3,15.1-19.8c6.6-8.4,13.6-16.5,20.9-24.3
		c2.1-2.3,2-2.3,2-4.8C409.8,40.9,409.8,27.5,409.8,14.1z"/>
</g>
<g>
	<path class="st1" d="M174.2,406.3c-1.7,0.1-3.5,0.3-5.2,0.3c-7.8,0.2-15.6,0.3-23.4-0.2c-5.3-0.3-10.6-0.7-15.9-1.3
		c-8.4-1-16.8-2.5-25-4.6c-0.6-0.2-1.3-0.5-2.1-0.3c0.3,0.2,0.5,0.4,0.7,0.5c7.4,2.6,14.8,4.9,22.4,6.8c9.3,2.3,18.6,4.1,28.1,5.3
		c4.7,0.6,9.4,1.2,14.1,1.4c1.5,0.1,3.1,0.3,4.6,0.4c0.3,0,0.6,0.1,0.8,0.2C173.6,415.1,175.6,406.2,174.2,406.3z"/>
	<path class="st2" d="M171.4,426.9c-0.8,0-1.5,0-2.3,0c-2.2-0.2-4.4-0.4-6.6-0.6c-6-0.7-12-1.5-18-2.7c-11.5-2.1-22.8-5.2-33.7-9.3
		c-5.1-2-10.2-4.2-15.1-6.7c-5.8-3-11.5-6.4-16.8-10.2c-0.5-0.4-1-0.8-1.7-0.9c0.1,0.7,0.6,1.1,1.1,1.6c1.5,1.4,3,2.7,4.5,4.1
		c12,10.6,25.2,19.4,39.5,26.5c12.5,6.2,25.5,11,39,14.4c2.2,0.6,4.5,1.1,6.8,1.6C169.2,444.8,171.7,426.9,171.4,426.9z"/>
</g>
</svg>
