<?xml version="1.0" encoding="utf-8"?>
<!-- Generator: Adobe Illustrator 19.1.0, SVG Export Plug-In . SVG Version: 6.00 Build 0)  -->
<svg version="1.1" id="Calque_1" xmlns="http://www.w3.org/2000/svg" xmlns:xlink="http://www.w3.org/1999/xlink" x="0px" y="0px"
	 viewBox="-761 45.4 102 94" style="enable-background:new -761 45.4 102 94;" xml:space="preserve">
<style type="text/css">
	.st0{fill:none;stroke:#74BD4C;stroke-width:6;stroke-miterlimit:10;}
	.st1{fill:#74BD4C;stroke:#74BD4C;stroke-width:0.5;stroke-miterlimit:10;}
	.st2{fill:#74BD4C;}
</style>
<circle class="st0" cx="-716.2" cy="90.9" r="40.2"/>
<g>
	<path class="st1" d="M-744.3,96.1l0.7-2.5c1.2,0.6,2.8,0.8,4.5,0.2c1.4-0.5,1.9-1.5,1.6-2.2c-0.8-2.2-7.4,2-9.1-2.7
		c-0.8-2.1,0.4-4.4,3.3-5.5c2-0.7,3.8-0.7,5.4-0.1l-0.7,2.5c-1.3-0.6-2.8-0.5-4.1,0c-1.1,0.4-1.6,1.2-1.3,1.9c0.7,2,7.3-2,9,2.6
		c0.8,2.3-0.1,4.6-3.5,5.8C-740.7,97-742.7,96.8-744.3,96.1z"/>
	<path class="st1" d="M-725.7,91.1l-0.4-1.1c-0.4,0.9-1.2,2-2.6,2.5c-2,0.7-3.3,0-3.9-1.7l-2.4-6.3l2.3-0.9l2,5.4
		c0.5,1.2,1.3,1.4,2.3,1c0.9-0.3,1.4-1.1,1.7-1.8l-2.3-6l2.3-0.9l3.3,8.9L-725.7,91.1z"/>
	<path class="st1" d="M-725.5,78.2c-0.3-0.8,0.1-1.6,0.9-1.9c0.8-0.3,1.6,0.1,1.9,0.9c0.3,0.8-0.1,1.6-0.9,1.9
		C-724.4,79.4-725.2,79-725.5,78.2z M-721.1,89.4l-3.3-8.9l2.3-0.9l3.3,8.9L-721.1,89.4z"/>
	<path class="st1" d="M-714.1,86.8l-6.9-7.6l2.5-0.9l4.6,5.3v-7.1l2.5-0.9l-0.3,10.3L-714.1,86.8z"/>
	<path class="st1" d="M-709.2,79.9c-1-2.6,0.2-5.4,2.9-6.4s5.2,0.3,6.3,3.2l0.2,0.5l-6.6,2.5c0.6,1.1,1.8,1.7,3.3,1.1
		c0.8-0.3,1.7-1,2.1-1.8l1.6,1.1c-0.6,1.1-1.8,2.1-3.2,2.6C-705.4,83.8-708.1,82.7-709.2,79.9z M-705.6,75.3
		c-1.5,0.5-1.7,1.9-1.5,2.8l4.4-1.6C-703,75.7-704,74.7-705.6,75.3z"/>
	<path class="st1" d="M-697.1,80.5l-0.7-1.8l2.1-6.6l-4,1.5l-0.8-2.1l7.2-2.7l0.6,1.7l-2.2,6.7l4.2-1.6l0.8,2.1L-697.1,80.5z"/>
	<path class="st1" d="M-727.5,113.1l-2-5.4c-0.5-1.2-1.3-1.4-2.3-1.1c-0.9,0.3-1.5,1.1-1.6,1.8l2.2,6l-2.3,0.9l-3.3-8.9l2.3-0.9
		l0.4,1.2c0.3-0.9,1.1-2,2.6-2.6c2-0.7,3.3,0,4,1.8l2.4,6.3L-727.5,113.1z"/>
	<path class="st1" d="M-725.1,107.1c-0.9-2.5,0-5.3,3-6.4c3-1.1,5.5,0.4,6.5,2.9c1,2.6,0,5.4-3,6.5
		C-721.5,111.2-724.1,109.7-725.1,107.1z M-718,104.5c-0.5-1.4-1.8-2.3-3.3-1.7c-1.5,0.5-1.8,2.1-1.3,3.4c0.5,1.4,1.8,2.3,3.2,1.8
		C-717.9,107.4-717.5,105.9-718,104.5z"/>
	<path class="st1" d="M-706.2,105.2l-0.4-1.1c-0.4,0.9-1.2,2-2.6,2.5c-2,0.7-3.3,0-3.9-1.7l-2.4-6.3l2.3-0.9l2,5.4
		c0.5,1.2,1.3,1.4,2.3,1c0.9-0.3,1.4-1.1,1.7-1.8l-2.3-6l2.3-0.9l3.3,8.9L-706.2,105.2z"/>
	<path class="st1" d="M-702.7,102.6l0.4-2c0.9,0.4,2.4,0.5,3.5,0.1c1-0.4,1.3-1,1.1-1.5c-0.6-1.5-5.4,1.7-6.7-1.8
		c-0.6-1.5,0.3-3.3,2.6-4.2c1.5-0.6,2.9-0.5,4.1-0.1l-0.3,2c-0.8-0.4-1.9-0.5-3-0.1c-0.9,0.3-1.3,0.9-1.1,1.4
		c0.5,1.3,5.4-1.8,6.7,1.9c0.6,1.6-0.3,3.4-2.8,4.3C-699.8,103-701.4,103.1-702.7,102.6z"/>
	<path class="st1" d="M-688.7,97.2c-0.3-0.8,0.1-1.7,0.9-2c0.8-0.3,1.8,0.1,2.1,0.9c0.3,0.8-0.1,1.7-0.9,2
		C-687.5,98.4-688.4,98-688.7,97.2z M-689.3,94.3l-3.5-8.2l2.8-1.1l2.7,8.5L-689.3,94.3z"/>
</g>
<path class="st2" d="M-662.1,106c-0.5-2.3-2.7-4.1-5.1-4.1c-7.3,0.1-14.6,0-21.9,0c-0.4,0-0.7,0-1.1,0.1c-3,0.3-5,2.6-5,5.5
	c0,7.3,0,14.6,0,22c0,2.5,1.5,4.6,3.7,5.3c0.5,0.2,12.7,0.1,12.7,0.1s-0.1-0.1-0.1-0.2c0-2.1,0-4.2,0-6.3c0-2,0-4.1,0-6.1
	c0-0.7,0-0.7-0.7-0.7c-0.6,0-1.1,0-1.7,0c-0.3,0-0.4-0.1-0.4-0.4c0-1.2,0-2.5,0-3.7c0-0.3,0.1-0.4,0.5-0.4c0.6,0,1.2,0,1.7,0
	c0.6,0,0.6,0,0.6-0.6c0-1.1,0-2.2,0-3.2s0.3-1.9,0.8-2.8c0.8-1.2,1.9-1.9,3.3-2c1.5-0.1,2.9-0.1,4.4-0.2c1.1,0,1.1,0,1.1,1s0,2,0,3
	c0,0.4-0.1,0.5-0.5,0.5c-0.8,0-1.6,0-2.4,0.1c-1,0.1-1.3,0.5-1.3,1.5c0,0.8,0,1.5,0,2.3c0,0.3,0.1,0.5,0.5,0.5c1.1,0,2.2,0,3.3,0
	c0.3,0,0.4,0.1,0.4,0.4c-0.2,1.2-0.3,2.5-0.4,3.7c0,0.3-0.2,0.4-0.5,0.4c-0.9,0-1.9,0-2.8,0c-0.4,0-0.5,0.1-0.5,0.5
	c0,2.1,0,4.2,0,6.3l0,0c0,2.1,0,4.2,0,6.3c0,0.1,0,0.2-0.1,0.3c0,0,6.9,0,7.3-0.1c2.8-0.8,4.3-2.7,4.3-5.6c0-7.2,0-14.4,0-21.6
	C-661.9,107.1-662,106.5-662.1,106z"/>
</svg>
