<?xml version="1.0" encoding="utf-8"?>
<!-- Generator: Adobe Illustrator 19.1.0, SVG Export Plug-In . SVG Version: 6.00 Build 0)  -->
<svg version="1.1" id="Calque_1" xmlns="http://www.w3.org/2000/svg" xmlns:xlink="http://www.w3.org/1999/xlink" x="0px" y="0px"
	 viewBox="0 0 99.3 98.3" style="enable-background:new 0 0 99.3 98.3;" xml:space="preserve">
<style type="text/css">
	.st0{fill:none;stroke:#FFFFFF;stroke-width:6;stroke-miterlimit:10;}
	.st1{clip-path:url(#SVGID_2_);}
	.st2{fill:#FFFFFF;stroke:#FFFFFF;stroke-miterlimit:10;}
	.st3{clip-path:url(#SVGID_2_);fill:#FFFFFF;stroke:#FFFFFF;stroke-width:0.25;stroke-miterlimit:10;}
</style>
<circle class="st0" cx="50.8" cy="49.5" r="44.2"/>
<g>
	<defs>
		<circle id="SVGID_1_" cx="50.8" cy="49.5" r="44.2"/>
	</defs>
	<clipPath id="SVGID_2_">
		<use xlink:href="#SVGID_1_"  style="overflow:visible;"/>
	</clipPath>
	<g class="st1">
		<path class="st2" d="M42.6,49.8c0.6-3.3,4.3-26.1,4.3-26.1l-0.1-0.1l-0.1,0l-5.9,20.5c0,0-0.1,0.3-0.4,0.2
			C40,44.3,40.1,44,40.1,44l3.7-21l-0.1-0.1l-0.1,0l-6,20.4c0,0-0.1,0.3-0.4,0.3c-0.3-0.1-0.2-0.4-0.2-0.4l3.7-21l-0.1-0.1l-0.1,0
			l-6.1,20.4c0,0-0.1,0.3-0.4,0.2c-0.3-0.1-0.3-0.4-0.3-0.4l3.8-21l-0.1-0.1l-0.1,0c0,0-6.8,22-7.8,25.2c-0.1,0.3,0,0.5,0.3,0.7
			c0.9,0.5,2.9,2.3,3.5,6.2c0.7,4-12.6,46.5-15.7,55.7c-0.8,2.3-0.6,5.8,2,8.6l0,0c3.6-1.4,5.3-4.4,5.6-6.8
			c1.4-9.6,8.4-53.6,10.8-56.8c2.3-3.2,4.9-3.9,5.9-4C42.3,50.2,42.5,50.1,42.6,49.8z"/>
	</g>
	<path class="st3" d="M64.5,67c4.2-1.4,8.4-5.1,11.2-10.4c4.5-8.5,3.4-17.9-2.3-20.9c-5.7-3-14,1.5-18.5,10
		c-2.8,5.3-3.4,10.9-2.2,15.1c-0.2,0.3-0.3,0.5-0.4,0.6c-0.2,0.3-0.1,0.5,0.1,0.7c0.7,0.8,2.3,2.8,1.9,6.8
		c-0.3,4.1-21,36.6-26.2,44.7c-1.3,2-2,5.5-0.2,8.8l0,0c3.8-0.4,6.2-3,7.1-5.2c3.7-8.9,18.6-44.4,21.8-47c3-2.6,5.6-2.5,6.6-2.3
		c0.3,0.1,0.5,0,0.7-0.3C64.3,67.4,64.4,67.2,64.5,67z"/>
</g>
</svg>
