<?xml version="1.0" encoding="utf-8"?>
<!-- Generator: Adobe Illustrator 19.1.0, SVG Export Plug-In . SVG Version: 6.00 Build 0)  -->
<svg version="1.1" id="Calque_1" xmlns="http://www.w3.org/2000/svg" xmlns:xlink="http://www.w3.org/1999/xlink" x="0px" y="0px"
	 viewBox="0 0 97 95" style="enable-background:new 0 0 97 95;" xml:space="preserve">
<style type="text/css">
	.st0{fill:none;stroke:#FFFFFF;stroke-width:6;stroke-miterlimit:10;}
	.st1{fill:#FFFFFF;}
</style>
<circle class="st0" cx="46.8" cy="47.4" r="44.2"/>
<circle class="st1" cx="36" cy="38.3" r="10.6"/>
<circle class="st1" cx="58" cy="38.3" r="10.6"/>
<circle class="st1" cx="46.5" cy="32.3" r="10.6"/>
<g>
	<path class="st1" d="M57.5,42.1c0-1.4-1.1-2.5-2.5-2.5H38.7c-1.4,0-2.5,1.1-2.5,2.5l-2,26.6c0,1.4,6.4,3,12.6,3s12.6-1.6,12.6-3
		L57.5,42.1z M46.9,69.4c-5,0-11-0.8-11-1.9s6-1.9,11-1.9s11,0.8,11,1.9S51.9,69.4,46.9,69.4z"/>
</g>
</svg>
