<?xml version="1.0" encoding="utf-8"?>
<!-- Generator: Adobe Illustrator 19.1.0, SVG Export Plug-In . SVG Version: 6.00 Build 0)  -->
<svg version="1.1" id="Calque_1" xmlns="http://www.w3.org/2000/svg" xmlns:xlink="http://www.w3.org/1999/xlink" x="0px" y="0px"
	 viewBox="0 0 89.3 104.7" style="enable-background:new 0 0 89.3 104.7;" xml:space="preserve">
<style type="text/css">
	.st0{fill:#74BD4C;}
	.st1{fill:#FFFFFF;}
	.st2{fill:none;}
	.st3{fill:#666666;}
	.st4{fill:#010101;}
	.st5{fill:#333333;}
</style>
<path class="st0" d="M87,43.3c0-23.7-19.3-43-43-43S1,19.6,1,43.3c0,13.4,6.2,25.4,15.8,33.3L44,103.8l27.2-27.2
	C80.9,68.8,87,56.8,87,43.3z"/>
<circle class="st1" cx="44" cy="44.3" r="36"/>
<g>
	<path class="st2" d="M29.6,43.6C29.6,43.6,29.6,43.6,29.6,43.6l-0.2,0c0,0,0,0,0,0C29.5,43.6,29.6,43.6,29.6,43.6z"/>
	<path class="st3" d="M26.8,46.4c-0.2,0.4-0.4,0.9-0.6,1.3c-0.6,1.4-1.1,2.9-1.4,4.4c-0.1,0.8-0.2,1.7-0.2,2.6c0,0.6,0,1.2,0.1,1.7
		c0,0.2,0.1,0.4,0.1,0.6c0,0,0,0,0,0c0-0.1,0-0.3,0.1-0.4c0.1-0.5,0.2-1.1,0.3-1.6c0.3-1.6,0.9-3.2,1.6-4.7c0,0,0-0.1,0.1-0.1
		c0,0,0,0,0,0c0,0,0,0,0,0v-3.9C26.8,46.3,26.8,46.3,26.8,46.4z"/>
	<polygon class="st4" points="27.5,62.1 27.5,62.1 27.5,62.1 	"/>
	<path class="st4" d="M29.6,43.6c0,0-0.1,0-0.2,0c0,0,0,0,0,0h0h0c0,0-0.1-0.1-0.1-0.1c0-0.1,0-0.2,0-0.3c0-0.2,0-0.5,0-0.7
		c0-0.1,0-0.3,0-0.4c0-2.1,0-4.3,0-6.4c0-0.1,0-0.2,0-0.3c0,0,0-0.1,0-0.1c0,0,0.1-0.1,0.1-0.1c0.1,0,0.2,0,0.4,0c1.2,0,2.5,0,3.7,0
		c0.1,0,0.2,0,0.3,0c0.1,0,0.1,0,0.1-0.1c0-0.3,0-0.7,0-1c0,0,0,0,0,0c0,0-0.1-0.1-0.1-0.1c-0.1,0-0.2,0-0.2,0c-2.1,0-4.2,0-6.4,0
		c-0.1,0-0.1,0-0.2,0c-0.1,0-0.2,0-0.2,0.2c0,0.1,0,0.3,0,0.4c0,3,0,5.9,0,8.9c0,0.8,0,1.6,0,2.4c0,0.1,0,0.2-0.1,0.4v3.9
		c0,0,0,0,0,0c0,0,0,0,0,0c0,0.1,0,0.2,0,0.4c0,1.8,0,3.7,0,5.5c0,0.1,0,0.2,0,0.3c0,0.1,0,0.2,0.2,0.2c0.1,0,0.2,0,0.2,0
		c2.1,0,4.2,0,6.3,0c0.1,0,0.2,0,0.2,0c0,0,0.1,0,0.1,0c0,0,0.1,0,0.1-0.1c0,0,0-0.1,0-0.1c0-0.3,0-0.6,0-0.9c0,0,0-0.1,0-0.1
		c0,0-0.1-0.1-0.1-0.1c-0.1,0-0.1,0-0.2,0c-0.3,0-0.6,0-0.9,0c-1.1,0-2.1,0-3.2,0c-0.1,0-0.2,0-0.3,0c0,0-0.1-0.1-0.1-0.1
		c0-0.1,0-0.2,0-0.3c0-2.8,0-5.6,0-8.5c0-0.1,0-0.2,0-0.3c0-0.2,0-0.3,0-0.5c0-0.1,0-0.2,0-0.4c0-0.1,0-0.1,0-0.2
		c0,0,0.1-0.1,0.1-0.1c0,0,0.1,0,0.1,0c0.4,0,0.8,0,1.2,0c0.8,0,1.5,0,2.3,0c0.1,0,0.2,0,0.3,0c0,0,0.1,0,0.1,0c0,0,0.1,0,0.1-0.1
		c0,0,0-0.1,0-0.2c0-0.2,0-0.5,0-0.7c0-0.3,0-0.3-0.3-0.3c-0.5,0-1,0-1.4,0c-0.1,0-0.2,0-0.3,0c0,0,0,0,0,0L29.6,43.6
		C29.6,43.6,29.6,43.6,29.6,43.6z"/>
	<path class="st5" d="M73.1,42.5c0-0.1,0-0.4,0-0.6c0-0.5-0.1-0.9-0.1-1.4c0-0.2-0.1-0.4-0.1-0.6c0,0,0,0,0,0c0,0,0,0,0,0
		c0,0.1,0,0.2,0,0.3c0,0.5-0.1,1.1-0.2,1.6c-0.2,1-0.4,2-0.7,3c-0.3,1.1-0.8,2.1-1.3,3.1c-0.7,1.3-1.5,2.6-2.4,3.8
		c-0.8,1.1-1.7,2.1-2.7,3.1c-0.5,0.5-1,1-1.6,1.4c-0.8,0.7-1.7,1.3-2.5,2c-0.3,0.2-0.7,0.5-1,0.7c-2,1.3-4,2.4-6.2,3.3
		c-1.7,0.7-3.3,1.3-5.1,1.8c-1.5,0.4-3,0.8-4.6,1c-0.3,0-0.5,0.1-0.8,0.1c-0.3,0.1-0.3,0.1-0.4,0.4c-0.1,0.2-0.1,0.5-0.1,0.8
		c0,0.1,0,0.2,0,0.4c-0.1,0.3-0.1,0.5-0.1,0.8c0,0,0,0.1,0,0.1c0,0.1,0.1,0.2,0.2,0.2c0.2,0,0.3,0,0.5,0c0.8-0.1,1.6-0.2,2.4-0.3
		c0.8-0.1,1.6-0.3,2.4-0.5c1.1-0.3,2.1-0.6,3.2-0.9c1.5-0.5,2.9-1.1,4.3-1.8c1.6-0.8,3.2-1.7,4.6-2.7c1.7-1.1,3.3-2.4,4.7-3.8
		c0.4-0.4,0.9-0.8,1.3-1.3c1.2-1.2,2.2-2.6,3.2-4c0.5-0.7,0.9-1.5,1.3-2.3c0.4-0.8,0.7-1.5,1-2.3c0.4-1.1,0.6-2.1,0.8-3.2
		C73,43.9,73.1,43.2,73.1,42.5z"/>
	<path class="st4" d="M27.2,59.2C27.2,59.1,27.1,59.1,27.2,59.2c-0.2-0.1-0.3-0.1-0.4-0.1c-1.1,0-2.2,0-3.2,0c-0.1,0-0.2,0-0.3,0
		c0,0-0.1,0-0.1,0c0,0-0.1,0-0.1-0.1c0-0.1,0-0.2,0-0.4c0-9.2,0-18.3,0-27.5c0-0.1,0-0.3,0-0.4c0-0.3,0-0.4-0.4-0.4
		c-0.6,0-1.1,0-1.7,0c-0.1,0-0.1,0-0.2,0c0,0-0.1,0-0.1,0c0,0-0.1,0.1-0.1,0.1c0,0.1,0,0.3,0,0.4c0,4.8,0,9.7,0,14.5
		c0,4.8,0,9.6,0,14.4c0,0.1,0,0.2,0,0.3c0,0.1,0,0.1,0,0.2c0,0,0.1,0.1,0.1,0.1c0.1,0,0.2,0,0.3,0c1.9,0,3.8,0,5.7,0
		c0.1,0,0.1,0,0.2,0c0,0,0.1,0,0.1,0c0,0,0.1,0,0.1-0.1c0,0,0-0.1,0-0.1C27.2,59.9,27.2,59.6,27.2,59.2
		C27.2,59.2,27.2,59.2,27.2,59.2z"/>
	<path class="st3" d="M65.3,51.1c-0.6,0.6-1.2,1.1-1.8,1.7c-1.2,1-2.4,1.9-3.7,2.7c-1.5,1-3,1.8-4.6,2.6c-1,0.5-2.1,1-3.2,1.4
		c-0.8,0.3-1.5,0.6-2.3,0.9c-1.4,0.5-2.8,0.9-4.2,1.3c-0.3,0.1-0.6,0.2-0.9,0.2c-0.1,0-0.2,0.1-0.3,0.1c-0.1,0-0.1,0.1-0.1,0.1
		c0,0,0,0.1,0,0.1c0,0.3-0.1,0.5-0.2,0.7c0,0.1,0,0.2,0,0.3c0,0,0,0.1,0,0.1c0,0,0.1,0.1,0.1,0.1c0,0,0.1,0,0.1,0
		c0.1,0,0.2,0,0.4-0.1c0.8-0.2,1.6-0.3,2.4-0.5c1.5-0.4,2.9-0.8,4.3-1.4c1.5-0.6,3-1.2,4.4-2c1.1-0.6,2.1-1.2,3.2-1.8
		c1.6-1,3.2-2.2,4.7-3.4c1-0.8,1.9-1.7,2.8-2.6c0.8-0.8,1.5-1.6,2.1-2.5c1-1.3,1.9-2.6,2.5-4.1c0.5-1.1,0.9-2.2,1.1-3.4
		c0.1-0.5,0.2-1,0.2-1.5c0-0.4,0-0.8,0-1.2c0,0,0-0.1,0-0.1c-0.1,0-0.1,0.1-0.1,0.2c-0.1,0.3-0.1,0.5-0.2,0.8
		c-0.4,1.6-1,3.2-1.8,4.7c-0.7,1.4-1.6,2.7-2.6,3.9C66.9,49.4,66.1,50.3,65.3,51.1z"/>
	<path class="st3" d="M59.6,29.6c-0.2,0-0.4,0-0.5,0.2c-0.1,0.1-0.2,0.2-0.2,0.3c-0.3,0.3-0.5,0.7-0.8,1c0,0-0.1,0.1-0.1,0.2
		c0,0,0,0.1,0.1,0.1c0,0,0,0,0.1,0c0.2,0,0.4,0,0.6,0c0.4,0,0.8,0,1.2,0.1c0.8,0.1,1.6,0.2,2.3,0.3c1.2,0.2,2.5,0.5,3.6,1
		c1,0.4,2,0.9,3,1.4c0.2,0.1,0.3,0.2,0.5,0.3c0.1,0,0.1,0.1,0.2,0c-0.1-0.1-0.3-0.2-0.4-0.3c-1.5-1.2-3.1-2.2-4.8-3
		c-0.8-0.4-1.6-0.7-2.5-1c-0.7-0.2-1.4-0.4-2.1-0.6C59.7,29.7,59.6,29.6,59.6,29.6z"/>
	<polygon class="st4" points="70.7,34.3 70.7,34.3 70.7,34.3 70.7,34.3 70.7,34.3 	"/>
	<polygon class="st4" points="70.7,34.5 70.7,34.5 70.7,34.5 	"/>
	<polygon class="st4" points="70.7,34.3 70.7,34.3 70.7,34.3 	"/>
	<path class="st4" d="M70.7,34.5c0,0,0-0.1,0-0.1C70.7,34.4,70.7,34.4,70.7,34.5L70.7,34.5z"/>
	<polygon class="st4" points="70.7,34.3 70.7,34.3 70.7,34.3 	"/>
	<polygon class="st4" points="70.7,34.5 70.7,34.5 70.7,34.5 70.7,34.5 	"/>
	<polygon class="st4" points="70.7,34.5 70.7,34.5 70.7,34.5 	"/>
	<path class="st4" d="M70.9,34.6C70.9,34.6,70.9,34.6,70.9,34.6C70.9,34.6,70.9,34.6,70.9,34.6L70.9,34.6L70.9,34.6
		C70.9,34.6,70.9,34.6,70.9,34.6z"/>
	<polygon class="st4" points="27.5,62 27.4,62 27.5,62 27.5,62 	"/>
	<path class="st4" d="M27.5,62C27.5,62,27.5,62,27.5,62C27.5,62,27.5,62,27.5,62C27.5,62,27.5,62,27.5,62C27.5,62,27.5,62,27.5,62z"
		/>
	<path class="st4" d="M27.5,62.1C27.5,62.1,27.5,62,27.5,62.1C27.5,62,27.5,62.1,27.5,62.1z"/>
	<path class="st4" d="M27.5,62.1C27.5,62.1,27.5,62.1,27.5,62.1C27.5,62.1,27.5,62.1,27.5,62.1C27.5,62.1,27.5,62.1,27.5,62.1z"/>
	<path class="st4" d="M27.5,62C27.5,62,27.5,62,27.5,62C27.5,62,27.5,62,27.5,62z"/>
	<path class="st4" d="M37.1,69l0-0.2c0,0,0-0.1,0-0.1C37.1,68.9,37.1,69,37.1,69z"/>
	<path class="st4" d="M38.3,61.4l0-0.2c-0.1,0.4-0.2,1-0.3,1.7c0-0.1,0-0.2,0.1-0.3C38.1,62.1,38.2,61.7,38.3,61.4z"/>
	<path class="st4" d="M38.1,62.5c0,0.1,0,0.2-0.1,0.3c-0.4,2.1-0.8,5-0.9,5.9c0,0,0,0.1,0,0.1l1.2-7.5
		C38.2,61.7,38.1,62.1,38.1,62.5z"/>
</g>
<g>
	<path class="st3" d="M53,29.1c-0.7,0.1-1.4,0.2-2.1,0.3c-1.2,0.2-2.4,0.5-3.6,0.9c-1.2,0.4-2.3,0.8-3.4,1.3
		c-0.8,0.3-1.5,0.7-2.3,1.1c-0.7,0.3-1.4,0.7-2,1.1c-0.7,0.4-1.4,0.9-2.1,1.3c-0.5,0.3-0.9,0.7-1.4,1c-0.4,0.3-0.9,0.6-1.3,1
		c-1.3,1-2.5,2.1-3.6,3.3c-0.4,0.4-0.7,0.8-1.1,1.2c-0.1,0.1-0.2,0.2-0.2,0.3c-0.1,0.1-0.6,0.7-0.6,0.8c0,0.1,0.1,1,0,1l2.2,0
		c0,0,0,0,0-0.1c0-0.1,0.1-0.1,0.1-0.1c0.8-0.9,1.7-1.7,2.6-2.4c1.3-1.1,2.7-2.2,4.2-3.1c0.9-0.6,1.8-1.1,2.8-1.6
		c0.5-0.3,1-0.5,1.5-0.8c0.8-0.4,1.6-0.8,2.4-1.1c1.8-0.8,3.7-1.4,5.6-2c0.1,0,0.2-0.1,0.3-0.1c0,0,0.1,0,0.1,0l2.4-3.4
		C53.3,29,53.1,29,53,29.1z"/>
	<path class="st4" d="M62.6,21.7c0-0.1,0-0.1,0-0.2c0-0.1-0.1-0.1-0.1-0.1c-0.1,0-0.2,0-0.4,0c-10.6,0-21.1,0-31.7,0
		c-0.2,0-0.3,0-0.5,0c-0.1,0-0.1,0-0.2,0c-0.1,0-0.1,0-0.1,0.2c0,0.1,0,0.2,0,0.3c0,1.7,0,3.4,0,5.1c0,0.1,0,0.2,0,0.3
		c0,0,0,0.1,0,0.1c0,0,0.1,0.1,0.1,0.1c0.1,0,0.3,0,0.4,0c7.9,0,15.8,0,23.8,0c0.1,0,0.3,0,0.4,0c0,0,0.1,0,0.1,0c0,0,0,0.1,0,0.1
		c0,0,0,0.1-0.1,0.1C53.9,28,53,29.1,53,29.1c-0.9,1.2-2.3,3-4.1,5.7c1.7-2.7,3.1-4.6,4.1-5.7c-0.1,0-2.6,3.6-2.7,3.6
		c-0.7,1.1-1.4,2.1-2.1,3.2c-0.5,0.9-1.1,1.8-1.6,2.7c-0.9,1.7-1.8,3.3-2.6,5c-0.9,2-1.8,4-2.6,6c-0.5,1.3-0.9,2.6-1.3,3.9
		c-0.5,1.5-0.9,3.1-1.3,4.6c-0.3,1-0.5,2.1-0.7,3.1l-1.2,7.5c0,0.3,0,0.6-0.1,0.8c0,0.4,0,0.9-0.1,1.3c0,0.1,0,0.2,0,0.3
		c0,0.1,0,0.2,0,0.3c0,0,0,0.1,0.1,0.1c0.1,0,0.2,0,0.3,0c1.8,0,3.7,0,5.5,0c0.1,0,0.2,0,0.3,0c0,0,0.1,0,0.1,0c0,0,0.1,0,0.1-0.1
		c0-0.1,0-0.1,0-0.2c0-0.3,0-0.7,0.1-1c0-0.3,0-0.5,0.1-0.8c0-0.4,0.1-0.7,0.1-1.1c0-0.3,0-0.6,0.1-0.8c0-0.1,0-0.3,0.1-0.4
		c0-0.2,0.1-0.5,0.1-0.7c0.1-0.4,0.1-0.7,0.2-1.1c0-0.4,0.1-0.8,0.2-1.2c0-0.2,0.1-0.4,0.1-0.6c0.1-0.5,0.2-1.1,0.3-1.6
		c0.1-0.3,0.1-0.6,0.2-1c0.3-1.1,0.5-2.2,0.9-3.3c0.3-1.2,0.7-2.4,1.1-3.6c0.5-1.4,0.9-2.7,1.5-4c0.8-2,1.7-4,2.6-6
		c0.6-1.2,1.2-2.3,1.8-3.4c0.9-1.7,1.9-3.4,3-5.1c0.6-0.9,1.2-1.8,1.8-2.7c0.4-0.6,0.8-1.2,1.3-1.8c0.5-0.7,1.1-1.4,1.6-2.1
		c0.7-0.9,1.4-1.7,2.2-2.6c0.2-0.2,0.2-0.2,0.2-0.5C62.6,24.5,62.6,23.1,62.6,21.7z"/>
</g>
<g>
	<path class="st3" d="M37.7,63.1c-0.2,0-0.4,0-0.5,0c-0.8,0-1.7,0-2.5,0c-0.6,0-1.1-0.1-1.7-0.1c-0.9-0.1-1.8-0.3-2.6-0.5
		c-0.1,0-0.1,0-0.2,0c0,0,0.1,0,0.1,0c0.8,0.3,1.6,0.5,2.4,0.7c1,0.2,2,0.4,3,0.6c0.5,0.1,1,0.1,1.5,0.1c0.2,0,0.3,0,0.5,0
		c0,0,0.1,0,0.1,0C37.7,64,37.9,63.1,37.7,63.1z"/>
	<path class="st5" d="M37.4,65.3c-0.1,0-0.2,0-0.2,0c-0.2,0-0.5,0-0.7-0.1c-0.6-0.1-1.3-0.2-1.9-0.3c-1.2-0.2-2.4-0.5-3.6-1
		c-0.5-0.2-1.1-0.4-1.6-0.7c-0.6-0.3-1.2-0.7-1.8-1.1c-0.1,0-0.1-0.1-0.2-0.1c0,0.1,0.1,0.1,0.1,0.2c0.2,0.1,0.3,0.3,0.5,0.4
		c1.3,1.1,2.7,2,4.2,2.8c1.3,0.7,2.7,1.2,4.1,1.5c0.2,0.1,0.5,0.1,0.7,0.2C37.2,67.2,37.4,65.3,37.4,65.3z"/>
</g>
</svg>
