<?xml version="1.0" encoding="utf-8"?>
<!-- Generator: Adobe Illustrator 19.1.0, SVG Export Plug-In . SVG Version: 6.00 Build 0)  -->
<svg version="1.1" id="Calque_1" xmlns="http://www.w3.org/2000/svg" xmlns:xlink="http://www.w3.org/1999/xlink" x="0px" y="0px"
	 viewBox="0 0 55 55.2" style="enable-background:new 0 0 55 55.2;" xml:space="preserve">
<style type="text/css">
	.st0{fill:#74BD4C;}
</style>
<path class="st0" d="M50.8,9.6c-0.8-3.3-3.9-5.9-7.4-5.9c-10.6,0.1-21.1,0-31.7,0c-0.5,0-1,0-1.6,0.1c-4.3,0.5-7.2,3.7-7.2,8
	c0,10.6,0,21.2,0,31.7c0,3.6,2.1,6.6,5.3,7.7c0.7,0.2,18.3,0.1,18.3,0.1c-0.1-0.1-0.1-0.2-0.1-0.3c0-3,0-6.1,0.1-9.1
	c0-3,0-5.9,0-8.9c0-1,0-1-1-1c-0.8,0-1.6,0-2.5,0c-0.4,0-0.6-0.1-0.6-0.6c0-1.8,0-3.5,0-5.3c0-0.5,0.2-0.6,0.7-0.6
	c0.8,0,1.7,0,2.5,0c0.9,0,0.9,0,0.9-0.9c0-1.6,0-3.1,0-4.7c0.1-1.4,0.4-2.8,1.2-4c1.1-1.8,2.8-2.7,4.8-2.9c2.1-0.2,4.2-0.2,6.3-0.2
	c1.5,0,1.5,0,1.5,1.5c0,1.4,0,2.9,0,4.3c0,0.5-0.2,0.7-0.7,0.7c-1.1,0-2.3,0-3.4,0.1c-1.4,0.1-1.9,0.7-1.9,2.2c0,1.1,0,2.2,0,3.3
	c0,0.5,0.2,0.7,0.7,0.7c1.6,0,3.2,0,4.8,0c0.5,0,0.6,0.1,0.5,0.6c-0.2,1.8-0.4,3.6-0.6,5.3c0,0.5-0.2,0.6-0.7,0.6
	c-1.4,0-2.7,0-4.1,0c-0.5,0-0.7,0.2-0.7,0.7c0,3,0,6.1,0,9.1c0,0,0,0,0,0c0,3,0,6.1,0,9.1c0,0.2,0,0.3-0.1,0.4c0,0,9.9,0,10.6-0.2
	c4.1-1.1,6.2-3.9,6.2-8.1c0-10.4,0-20.8,0-31.2C51.1,11.1,51,10.4,50.8,9.6z"/>
</svg>
